<!-- Circuit OS Custom Icon Library -->
<!-- Minimalist, technical, industrial design system -->
<!-- Colors: Steel gray (#8B9198) inactive, Neon green (#38FF6A) active -->
<!-- All icons 24x24px viewBox, 2-3px stroke width -->

<svg xmlns="http://www.w3.org/2000/svg" style="display: none;">
  <defs>
    <!-- 1. Circuit Bolt Icon (Primary Brand Icon) -->
    <symbol id="icon-circuit-bolt" viewBox="0 0 24 24">
      <circle cx="12" cy="12" r="10" fill="none" stroke="currentColor" stroke-width="2"/>
      <circle cx="12" cy="12" r="3" fill="currentColor"/>
      <circle cx="12" cy="12" r="6" fill="none" stroke="currentColor" stroke-width="1" opacity="0.5"/>
    </symbol>

    <!-- 2. Data Input Icon -->
    <symbol id="icon-data-input" viewBox="0 0 24 24">
      <rect x="3" y="3" width="18" height="18" fill="none" stroke="currentColor" stroke-width="2" rx="2"/>
      <line x1="7" y1="8" x2="17" y2="8" stroke="currentColor" stroke-width="2"/>
      <line x1="7" y1="12" x2="17" y2="12" stroke="currentColor" stroke-width="2"/>
      <line x1="7" y1="16" x2="13" y2="16" stroke="currentColor" stroke-width="2"/>
    </symbol>

    <!-- 3. Processing Gear Icon -->
    <symbol id="icon-processing" viewBox="0 0 24 24">
      <circle cx="12" cy="12" r="8" fill="none" stroke="currentColor" stroke-width="2"/>
      <circle cx="12" cy="12" r="3" fill="currentColor"/>
      <line x1="12" y1="4" x2="12" y2="7" stroke="currentColor" stroke-width="2"/>
      <line x1="12" y1="17" x2="12" y2="20" stroke="currentColor" stroke-width="2"/>
      <line x1="4" y1="12" x2="7" y2="12" stroke="currentColor" stroke-width="2"/>
      <line x1="17" y1="12" x2="20" y2="12" stroke="currentColor" stroke-width="2"/>
    </symbol>

    <!-- 4. Decision Target Icon -->
    <symbol id="icon-decision" viewBox="0 0 24 24">
      <circle cx="12" cy="12" r="10" fill="none" stroke="currentColor" stroke-width="2"/>
      <circle cx="12" cy="12" r="6" fill="none" stroke="currentColor" stroke-width="2"/>
      <circle cx="12" cy="12" r="2" fill="currentColor"/>
    </symbol>

    <!-- 5. Outreach Mail Icon -->
    <symbol id="icon-outreach" viewBox="0 0 24 24">
      <rect x="3" y="6" width="18" height="12" fill="none" stroke="currentColor" stroke-width="2" rx="2"/>
      <path d="M3 6l9 6 9-6" stroke="currentColor" stroke-width="2" fill="none"/>
    </symbol>

    <!-- 6. Upload Arrow Icon -->
    <symbol id="icon-upload" viewBox="0 0 24 24">
      <line x1="12" y1="15" x2="12" y2="7" stroke="currentColor" stroke-width="2"/>
      <polyline points="8,11 12,7 16,11" stroke="currentColor" stroke-width="2" fill="none"/>
      <path d="M4 17v2a2 2 0 002 2h12a2 2 0 002-2v-2" stroke="currentColor" stroke-width="2" fill="none"/>
    </symbol>

    <!-- 7. Analytics Chart Icon -->
    <symbol id="icon-analytics" viewBox="0 0 24 24">
      <line x1="3" y1="20" x2="21" y2="20" stroke="currentColor" stroke-width="2"/>
      <rect x="5" y="14" width="3" height="6" fill="none" stroke="currentColor" stroke-width="2"/>
      <rect x="10" y="10" width="3" height="10" fill="none" stroke="currentColor" stroke-width="2"/>
      <rect x="15" y="6" width="3" height="14" fill="none" stroke="currentColor" stroke-width="2"/>
    </symbol>

    <!-- 8. Alert Triangle Icon -->
    <symbol id="icon-alert" viewBox="0 0 24 24">
      <path d="M12 2L2 20h20L12 2z" fill="none" stroke="currentColor" stroke-width="2"/>
      <line x1="12" y1="10" x2="12" y2="14" stroke="currentColor" stroke-width="2.5" stroke-linecap="round"/>
      <circle cx="12" cy="17" r="1" fill="currentColor"/>
    </symbol>

    <!-- 9. Brain/AI Icon -->
    <symbol id="icon-brain" viewBox="0 0 24 24">
      <circle cx="12" cy="12" r="9" fill="none" stroke="currentColor" stroke-width="2"/>
      <line x1="8" y1="10" x2="10" y2="10" stroke="currentColor" stroke-width="2"/>
      <line x1="14" y1="10" x2="16" y2="10" stroke="currentColor" stroke-width="2"/>
      <line x1="8" y1="14" x2="16" y2="14" stroke="currentColor" stroke-width="2"/>
      <line x1="12" y1="6" x2="12" y2="10" stroke="currentColor" stroke-width="1.5" opacity="0.5"/>
      <line x1="12" y1="14" x2="12" y2="18" stroke="currentColor" stroke-width="1.5" opacity="0.5"/>
    </symbol>

    <!-- 10. Shield/Security Icon -->
    <symbol id="icon-shield" viewBox="0 0 24 24">
      <path d="M12 2L4 6v6c0 5.5 3.5 10 8 12 4.5-2 8-6.5 8-12V6l-8-4z" fill="none" stroke="currentColor" stroke-width="2"/>
      <polyline points="9,12 11,14 15,10" stroke="currentColor" stroke-width="2" fill="none"/>
    </symbol>

    <!-- 11. Copy Clipboard Icon -->
    <symbol id="icon-copy" viewBox="0 0 24 24">
      <rect x="8" y="8" width="12" height="12" rx="2" fill="none" stroke="currentColor" stroke-width="2"/>
      <path d="M16 8V6a2 2 0 00-2-2H6a2 2 0 00-2 2v8a2 2 0 002 2h2" fill="none" stroke="currentColor" stroke-width="2"/>
    </symbol>

    <!-- 12. Education/Graduation Icon -->
    <symbol id="icon-education" viewBox="0 0 24 24">
      <path d="M2 10l10-5 10 5-10 5-10-5z" fill="none" stroke="currentColor" stroke-width="2"/>
      <path d="M6 12v5c0 2 2.7 4 6 4s6-2 6-4v-5" fill="none" stroke="currentColor" stroke-width="2"/>
      <line x1="20" y1="10" x2="20" y2="18" stroke="currentColor" stroke-width="2"/>
    </symbol>

    <!-- 13. Building/Company Icon -->
    <symbol id="icon-building" viewBox="0 0 24 24">
      <rect x="4" y="4" width="16" height="18" fill="none" stroke="currentColor" stroke-width="2" rx="1"/>
      <line x1="8" y1="8" x2="10" y2="8" stroke="currentColor" stroke-width="2"/>
      <line x1="14" y1="8" x2="16" y2="8" stroke="currentColor" stroke-width="2"/>
      <line x1="8" y1="12" x2="10" y2="12" stroke="currentColor" stroke-width="2"/>
      <line x1="14" y1="12" x2="16" y2="12" stroke="currentColor" stroke-width="2"/>
      <rect x="10" y="17" width="4" height="5" fill="none" stroke="currentColor" stroke-width="2"/>
    </symbol>

    <!-- 14. Money/Budget Icon -->
    <symbol id="icon-money" viewBox="0 0 24 24">
      <circle cx="12" cy="12" r="10" fill="none" stroke="currentColor" stroke-width="2"/>
      <path d="M14.5 9.5c0-1-1-1.5-2.5-1.5s-2.5.5-2.5 1.5c0 1.5 5 1 5 4 0 1-1 1.5-2.5 1.5s-2.5-.5-2.5-1.5" stroke="currentColor" stroke-width="2" fill="none"/>
      <line x1="12" y1="6" x2="12" y2="8" stroke="currentColor" stroke-width="2"/>
      <line x1="12" y1="16" x2="12" y2="18" stroke="currentColor" stroke-width="2"/>
    </symbol>

    <!-- 15. Factory/Industry Icon -->
    <symbol id="icon-industry" viewBox="0 0 24 24">
      <path d="M3 20h18V10L15 15V8L9 13V6L3 10v10z" fill="none" stroke="currentColor" stroke-width="2"/>
      <rect x="7" y="14" width="2" height="3" fill="currentColor"/>
      <rect x="11" y="14" width="2" height="3" fill="currentColor"/>
      <rect x="15" y="14" width="2" height="3" fill="currentColor"/>
    </symbol>

    <!-- 16. User/Person Icon -->
    <symbol id="icon-user" viewBox="0 0 24 24">
      <circle cx="12" cy="8" r="4" fill="none" stroke="currentColor" stroke-width="2"/>
      <path d="M4 20c0-4 3.5-7 8-7s8 3 8 7" stroke="currentColor" stroke-width="2" fill="none"/>
    </symbol>

    <!-- 17. Checkmark Circle Icon -->
    <symbol id="icon-check-circle" viewBox="0 0 24 24">
      <circle cx="12" cy="12" r="10" fill="none" stroke="currentColor" stroke-width="2"/>
      <polyline points="8,12 11,15 16,9" stroke="currentColor" stroke-width="2" fill="none" stroke-linecap="round" stroke-linejoin="round"/>
    </symbol>

    <!-- 18. Refresh/Cycle Icon -->
    <symbol id="icon-refresh" viewBox="0 0 24 24">
      <path d="M21 12a9 9 0 11-9-9c2.5 0 4.8 1 6.5 2.5" stroke="currentColor" stroke-width="2" fill="none"/>
      <polyline points="21,3 21,9 15,9" stroke="currentColor" stroke-width="2" fill="none"/>
    </symbol>

    <!-- 19. Architecture/Blueprint Icon -->
    <symbol id="icon-architecture" viewBox="0 0 24 24">
      <rect x="3" y="3" width="7" height="7" fill="none" stroke="currentColor" stroke-width="2" rx="1"/>
      <rect x="14" y="3" width="7" height="7" fill="none" stroke="currentColor" stroke-width="2" rx="1"/>
      <rect x="3" y="14" width="7" height="7" fill="none" stroke="currentColor" stroke-width="2" rx="1"/>
      <rect x="14" y="14" width="7" height="7" fill="none" stroke="currentColor" stroke-width="2" rx="1"/>
      <line x1="10" y1="6.5" x2="14" y2="6.5" stroke="currentColor" stroke-width="2"/>
      <line x1="10" y1="17.5" x2="14" y2="17.5" stroke="currentColor" stroke-width="2"/>
      <line x1="6.5" y1="10" x2="6.5" y2="14" stroke="currentColor" stroke-width="2"/>
      <line x1="17.5" y1="10" x2="17.5" y2="14" stroke="currentColor" stroke-width="2"/>
    </symbol>

    <!-- 20. Tools/Settings Icon -->
    <symbol id="icon-tools" viewBox="0 0 24 24">
      <path d="M14 3v4a1 1 0 001 1h4" stroke="currentColor" stroke-width="2" fill="none"/>
      <path d="M17 21H7a2 2 0 01-2-2V5a2 2 0 012-2h7l5 5v11a2 2 0 01-2 2z" stroke="currentColor" stroke-width="2" fill="none"/>
      <circle cx="12" cy="14" r="2" fill="none" stroke="currentColor" stroke-width="2"/>
      <line x1="12" y1="12" x2="12" y2="10" stroke="currentColor" stroke-width="2"/>
      <line x1="12" y1="16" x2="12" y2="18" stroke="currentColor" stroke-width="2"/>
    </symbol>

    <!-- 21. Python/Code Icon -->
    <symbol id="icon-code" viewBox="0 0 24 24">
      <polyline points="16,18 22,12 16,6" stroke="currentColor" stroke-width="2" fill="none"/>
      <polyline points="8,6 2,12 8,18" stroke="currentColor" stroke-width="2" fill="none"/>
    </symbol>

    <!-- 22. Web/Globe Icon -->
    <symbol id="icon-web" viewBox="0 0 24 24">
      <circle cx="12" cy="12" r="10" fill="none" stroke="currentColor" stroke-width="2"/>
      <path d="M2 12h20" stroke="currentColor" stroke-width="2"/>
      <path d="M12 2a15.3 15.3 0 014 10 15.3 15.3 0 01-4 10 15.3 15.3 0 01-4-10 15.3 15.3 0 014-10z" stroke="currentColor" stroke-width="2" fill="none"/>
    </symbol>

    <!-- 23. Diamond/Value Icon -->
    <symbol id="icon-diamond" viewBox="0 0 24 24">
      <path d="M12 2L2 9l10 13 10-13-10-7z" fill="none" stroke="currentColor" stroke-width="2"/>
      <path d="M2 9h20" stroke="currentColor" stroke-width="2"/>
      <line x1="12" y1="2" x2="12" y2="22" stroke="currentColor" stroke-width="2"/>
    </symbol>

    <!-- 24. Team/Group Icon -->
    <symbol id="icon-team" viewBox="0 0 24 24">
      <circle cx="9" cy="7" r="3" fill="none" stroke="currentColor" stroke-width="2"/>
      <circle cx="17" cy="7" r="3" fill="none" stroke="currentColor" stroke-width="2"/>
      <path d="M3 19c0-3 2.5-5 6-5s6 2 6 5" stroke="currentColor" stroke-width="2" fill="none"/>
      <path d="M15 19c0-3 2.5-5 6-5" stroke="currentColor" stroke-width="2" fill="none"/>
    </symbol>

    <!-- 25. Rocket/Launch Icon -->
    <symbol id="icon-rocket" viewBox="0 0 24 24">
      <path d="M4.5 16.5c-1.5 1.26-2 5-2 5s3.74-.5 5-2c.71-.84.7-2.13-.09-2.91a2.18 2.18 0 00-2.91-.09z" stroke="currentColor" stroke-width="2" fill="none"/>
      <path d="M12 15l-3-3a22 22 0 012-3.95A12.88 12.88 0 0122 2c0 2.72-.78 7.5-6 11a22.35 22.35 0 01-4 2z" stroke="currentColor" stroke-width="2" fill="none"/>
      <path d="M9 12H4s.55-3.03 2-4c1.62-1.08 5 0 5 0" stroke="currentColor" stroke-width="2" fill="none"/>
      <path d="M12 15v5s3.03-.55 4-2c1.08-1.62 0-5 0-5" stroke="currentColor" stroke-width="2" fill="none"/>
    </symbol>

    <!-- 26. Balance/Scale Icon -->
    <symbol id="icon-balance" viewBox="0 0 24 24">
      <line x1="12" y1="3" x2="12" y2="21" stroke="currentColor" stroke-width="2"/>
      <line x1="8" y1="21" x2="16" y2="21" stroke="currentColor" stroke-width="2"/>
      <path d="M6 9l-3 7h6l-3-7z" fill="none" stroke="currentColor" stroke-width="2"/>
      <path d="M18 9l-3 7h6l-3-7z" fill="none" stroke="currentColor" stroke-width="2"/>
      <line x1="6" y1="9" x2="12" y2="9" stroke="currentColor" stroke-width="2"/>
      <line x1="18" y1="9" x2="12" y2="9" stroke="currentColor" stroke-width="2"/>
    </symbol>

    <!-- 27. Chart Up/Growth Icon -->
    <symbol id="icon-chart-up" viewBox="0 0 24 24">
      <polyline points="23,6 13.5,15.5 8.5,10.5 1,18" stroke="currentColor" stroke-width="2" fill="none"/>
      <polyline points="17,6 23,6 23,12" stroke="currentColor" stroke-width="2" fill="none"/>
    </symbol>

    <!-- 28. Dashboard Icon -->
    <symbol id="icon-dashboard" viewBox="0 0 24 24">
      <rect x="3" y="3" width="7" height="9" fill="none" stroke="currentColor" stroke-width="2" rx="1"/>
      <rect x="14" y="3" width="7" height="5" fill="none" stroke="currentColor" stroke-width="2" rx="1"/>
      <rect x="14" y="12" width="7" height="9" fill="none" stroke="currentColor" stroke-width="2" rx="1"/>
      <rect x="3" y="16" width="7" height="5" fill="none" stroke="currentColor" stroke-width="2" rx="1"/>
    </symbol>

    <!-- 29. Lock Icon -->
    <symbol id="icon-lock" viewBox="0 0 24 24">
      <rect x="5" y="11" width="14" height="10" rx="2" ry="2" stroke="currentColor" stroke-width="2" fill="none"/>
      <path d="M8 11V7a4 4 0 018 0v4" stroke="currentColor" stroke-width="2" fill="none"/>
    </symbol>

    <!-- 30. Link/Connect Icon -->
    <symbol id="icon-link" viewBox="0 0 24 24">
      <path d="M10 13a5 5 0 007.54.54l3-3a5 5 0 00-7.07-7.07l-1.72 1.71" stroke="currentColor" stroke-width="2" fill="none"/>
      <path d="M14 11a5 5 0 00-7.54-.54l-3 3a5 5 0 007.07 7.07l1.71-1.71" stroke="currentColor" stroke-width="2" fill="none"/>
    </symbol>
  </defs>
</svg>
