<svg width="200" height="200" viewBox="0 0 200 200" xmlns="http://www.w3.org/2000/svg">
  <defs>
    <!-- Luxurious gold gradient -->
    <linearGradient id="goldGradient" x1="0%" y1="0%" x2="100%" y2="100%">
      <stop offset="0%" style="stop-color:#E5C158" />
      <stop offset="50%" style="stop-color:#D4AF37" />
      <stop offset="100%" style="stop-color:#B8941E" />
    </linearGradient>

    <!-- Dark to gold gradient for depth -->
    <linearGradient id="goldDepth" x1="0%" y1="0%" x2="0%" y2="100%">
      <stop offset="0%" style="stop-color:#E5C158" />
      <stop offset="100%" style="stop-color:#B8941E" />
    </linearGradient>

    <!-- Radial gradient for gold glow -->
    <radialGradient id="goldGlow" cx="50%" cy="50%" r="50%">
      <stop offset="0%" style="stop-color:#D4AF37;stop-opacity:0.6" />
      <stop offset="50%" style="stop-color:#D4AF37;stop-opacity:0.3" />
      <stop offset="100%" style="stop-color:#D4AF37;stop-opacity:0" />
    </radialGradient>

    <!-- Subtle neon green pulse (NEW) -->
    <radialGradient id="neonPulse" cx="50%" cy="50%" r="50%">
      <stop offset="0%" style="stop-color:#00FF88;stop-opacity:0.3" />
      <stop offset="50%" style="stop-color:#00FF88;stop-opacity:0.15" />
      <stop offset="100%" style="stop-color:#00FF88;stop-opacity:0" />
    </radialGradient>

    <!-- Subtle inner shadow for depth -->
    <filter id="innerShadow">
      <feGaussianBlur in="SourceAlpha" stdDeviation="2"/>
      <feOffset dx="0" dy="2" result="offsetblur"/>
      <feComponentTransfer>
        <feFuncA type="linear" slope="0.3"/>
      </feComponentTransfer>
      <feMerge>
        <feMergeNode/>
        <feMergeNode in="SourceGraphic"/>
      </feMerge>
    </filter>

    <!-- Outer glow -->
    <filter id="outerGlow">
      <feGaussianBlur stdDeviation="4" result="coloredBlur"/>
      <feMerge>
        <feMergeNode in="coloredBlur"/>
        <feMergeNode in="SourceGraphic"/>
      </feMerge>
    </filter>
  </defs>

  <!-- Background glow circle -->
  <circle cx="100" cy="100" r="90" fill="url(#goldGlow)" opacity="0.4"/>

  <!-- Outer hexagon frame (gold for luxury) -->
  <polygon points="100,30 160,65 160,135 100,170 40,135 40,65"
           fill="none"
           stroke="url(#goldGradient)"
           stroke-width="3"
           filter="url(#outerGlow)"/>

  <!-- Inner hexagon for depth -->
  <polygon points="100,40 150,70 150,130 100,160 50,130 50,70"
           fill="none"
           stroke="url(#goldGradient)"
           stroke-width="1.5"
           opacity="0.5"/>

  <!-- Circuit board paths - horizontal traces -->
  <line x1="50" y1="70" x2="70" y2="70"
        stroke="url(#goldGradient)"
        stroke-width="2"
        opacity="0.7"/>
  <line x1="130" y1="70" x2="150" y2="70"
        stroke="url(#goldGradient)"
        stroke-width="2"
        opacity="0.7"/>

  <!-- Vertical traces -->
  <line x1="70" y1="70" x2="70" y2="85"
        stroke="url(#goldGradient)"
        stroke-width="2"
        opacity="0.7"/>
  <line x1="130" y1="70" x2="130" y2="85"
        stroke="url(#goldGradient)"
        stroke-width="2"
        opacity="0.7"/>

  <!-- Central "C" letterform - stylized circuit -->
  <path d="M 130 100
           C 130 78, 114 65, 100 65
           C 86 65, 70 78, 70 100
           C 70 122, 86 135, 100 135
           C 108 135, 115 132, 120 127"
        fill="none"
        stroke="url(#goldDepth)"
        stroke-width="4"
        stroke-linecap="round"
        filter="url(#innerShadow)"/>

  <!-- Inner "C" highlight -->
  <path d="M 125 100
           C 125 83, 112 73, 100 73
           C 88 73, 75 83, 75 100
           C 75 117, 88 127, 100 127
           C 106 127, 111 125, 115 121"
        fill="none"
        stroke="#E5C158"
        stroke-width="1.5"
        stroke-linecap="round"
        opacity="0.6"/>

  <!-- Circuit nodes (connection points) -->
  <circle cx="70" cy="85" r="3" fill="url(#goldGradient)" filter="url(#outerGlow)"/>
  <circle cx="130" cy="85" r="3" fill="url(#goldGradient)" filter="url(#outerGlow)"/>
  <circle cx="70" cy="70" r="3" fill="url(#goldGradient)" filter="url(#outerGlow)"/>
  <circle cx="130" cy="70" r="3" fill="url(#goldGradient)" filter="url(#outerGlow)"/>

  <!-- Subtle neon pulse ring - animated (NEW) -->
  <circle cx="100" cy="100" r="15" fill="url(#neonPulse)">
    <animate attributeName="r" values="10;22;10" dur="3s" repeatCount="indefinite"/>
    <animate attributeName="opacity" values="0.3;0.1;0.3" dur="3s" repeatCount="indefinite"/>
  </circle>

  <!-- Central power core with subtle neon (NEW) -->
  <circle cx="100" cy="100" r="8"
          fill="none"
          stroke="url(#goldGradient)"
          stroke-width="2"
          filter="url(#outerGlow)"/>
  <circle cx="100" cy="100" r="5"
          fill="#00FF88"
          opacity="0.8">
    <animate attributeName="opacity" values="0.6;0.9;0.6" dur="2s" repeatCount="indefinite"/>
  </circle>
  <circle cx="98" cy="98" r="2"
          fill="#00FF88"
          opacity="0.95"/>

  <!-- Bottom circuit traces -->
  <line x1="50" y1="130" x2="70" y2="130"
        stroke="url(#goldGradient)"
        stroke-width="2"
        opacity="0.7"/>
  <line x1="130" y1="130" x2="150" y2="130"
        stroke="url(#goldGradient)"
        stroke-width="2"
        opacity="0.7"/>
  <circle cx="70" cy="130" r="3" fill="url(#goldGradient)" filter="url(#outerGlow)"/>
  <circle cx="130" cy="130" r="3" fill="url(#goldGradient)" filter="url(#outerGlow)"/>
</svg>
