<svg width="512" height="512" viewBox="0 0 512 512" xmlns="http://www.w3.org/2000/svg">
  <defs>
    <linearGradient id="steelGradient" x1="0%" y1="0%" x2="100%" y2="100%">
      <stop offset="0%" style="stop-color:#B8BCC2;stop-opacity:1" />
      <stop offset="100%" style="stop-color:#8a8e94;stop-opacity:1" />
    </linearGradient>

    <radialGradient id="glowGradient" cx="50%" cy="50%" r="50%">
      <stop offset="0%" style="stop-color:#38FF6A;stop-opacity:0.8" />
      <stop offset="50%" style="stop-color:#38FF6A;stop-opacity:0.3" />
      <stop offset="100%" style="stop-color:#38FF6A;stop-opacity:0" />
    </radialGradient>

    <filter id="glow">
      <feGaussianBlur stdDeviation="12" result="coloredBlur"/>
      <feMerge>
        <feMergeNode in="coloredBlur"/>
        <feMergeNode in="SourceGraphic"/>
      </feMerge>
    </filter>
  </defs>

  <!-- Background -->
  <rect width="512" height="512" fill="#0a0a0a" rx="80"/>

  <!-- Glow effect -->
  <circle cx="380" cy="220" r="100" fill="url(#glowGradient)" opacity="0.6"/>

  <!-- Steel "C" - Scaled up for icon -->
  <path d="M 256 100
           C 340 100, 400 160, 400 244
           C 400 328, 340 388, 256 388
           L 256 328
           C 308 328, 350 286, 350 244
           C 350 202, 308 160, 256 160
           L 256 100 Z"
        fill="url(#steelGradient)"
        stroke="#7a7e84"
        stroke-width="4"/>

  <!-- Inner curve detail -->
  <path d="M 256 120
           C 330 120, 385 175, 385 244
           C 385 313, 330 368, 256 368"
        fill="none"
        stroke="#d0d4d8"
        stroke-width="2"
        opacity="0.3"/>

  <!-- Signal Dot -->
  <circle cx="380" cy="220" r="28" fill="#38FF6A" filter="url(#glow)"/>
  <circle cx="380" cy="220" r="20" fill="#5aff88" opacity="0.8"/>
  <circle cx="374" cy="214" r="8" fill="#ffffff" opacity="0.6"/>
</svg>
